<svg id="Calque_1" data-name="Calque 1" xmlns="http://www.w3.org/2000/svg" viewBox="0 0 637.24 368.81">
    <path d="M320.79,412.56H279.73V385.12q0-12-1.32-14.94t-5.8-3q-5.07,0-6.44,3.61t-1.36,15.6v73.35q0,11.52,1.36,15c.91,2.34,3,3.52,6.15,3.52s5.05-1.18,6-3.52,1.42-7.86,1.42-16.53V438.41h41.06v6.16q0,24.51-3.46,34.77t-15.31,18Q290.17,505,272.8,505q-18,0-29.75-6.53t-15.51-18.1q-3.79-11.55-3.8-34.77V399.49q0-17.07,1.17-25.6a36,36,0,0,1,7-16.44A38.93,38.93,0,0,1,248,345a58,58,0,0,1,23.65-4.54q18.15,0,29.95,7T317.09,365q3.71,10.47,3.7,32.58Z"
          transform="translate(-223.74 -340.48)" fill="#FFE424"/>
    <path d="M374.59,343.8V470.11h25v31.61h-66V343.8Z" transform="translate(-223.74 -340.48)" fill="#FFE424"/>
    <path d="M448.57,343.8V501.72H407.51V343.8Z" transform="translate(-223.74 -340.48)" fill="#FFE424"/>
    <path d="M558.94,412.56H517.88V385.12q0-12-1.32-14.94t-5.8-3q-5.07,0-6.44,3.61T503,386.42v73.35q0,11.52,1.36,15c.91,2.34,3,3.52,6.15,3.52s5-1.18,6-3.52,1.42-7.86,1.42-16.53V438.41h41.06v6.16q0,24.51-3.46,34.77t-15.31,18Q528.32,505,511,505q-18,0-29.75-6.53t-15.5-18.1q-3.81-11.55-3.81-34.77V399.49q0-17.07,1.17-25.6a35.87,35.87,0,0,1,7-16.44A38.83,38.83,0,0,1,486.13,345a58,58,0,0,1,23.65-4.54q18.15,0,30,7T555.24,365q3.71,10.47,3.7,32.58Z"
          transform="translate(-223.74 -340.48)" fill="#FFE424"/>
    <path d="M669.56,343.8,646,415.1l25.8,86.62H629.37L612.74,434v67.7H571.67V343.8h41.07v61.35L631,343.8Z"
          transform="translate(-223.74 -340.48)" fill="#FFE424"/>
    <path d="M814.26,441.73v26.63l-11,7L817,501.72H780.56l-4.74-8.78Q757.48,505,741.1,505q-17.16,0-26.43-11.41t-9.26-27.51q0-12.87,5.46-20.19T727.25,434q-15.6-11.2-15.6-30.33,0-16.49,11.12-26.53t30.63-10.05q17.55,0,27.65,9.85T791.14,402q0,16-12.29,28.38l13.91,25.14Zm-51.94,33.39-12.73-21.3q-7.32,6.63-7.31,14.34,0,5.56,2.28,8.34t6.76,2.78Q756.09,479.28,762.32,475.12Zm-8.83-61q6.63-8.72,6.64-16.64a10.88,10.88,0,0,0-2-6.27,6.26,6.26,0,0,0-5.46-2.84,5.76,5.76,0,0,0-4.87,2.16q-1.67,2.14-1.66,6.56Q746.18,406.29,753.49,414.12Z"
          transform="translate(-223.74 -340.48)" fill="#FFE424"/>
    <path d="M320.79,616.82H279.73V589.38q0-12-1.32-14.94t-5.8-3q-5.07,0-6.44,3.61t-1.36,15.6V664q0,11.52,1.36,15c.91,2.34,3,3.52,6.15,3.52s5.05-1.18,6-3.52,1.42-7.86,1.42-16.53V642.67h41.06v6.15q0,24.52-3.46,34.78t-15.31,18q-11.85,7.73-29.22,7.72-18,0-29.75-6.53t-15.51-18.1q-3.79-11.55-3.8-34.77V603.75q0-17.07,1.17-25.6a36,36,0,0,1,7-16.44A38.93,38.93,0,0,1,248,549.28a58,58,0,0,1,23.65-4.54q18.15,0,29.95,7t15.51,17.49q3.71,10.47,3.7,32.58Z"
          transform="translate(-223.74 -340.48)" fill="#FFE424"/>
    <path d="M427.36,640.53q0,23.79-1.12,33.7a37.75,37.75,0,0,1-23,30.67q-10,4.4-23.4,4.39a59.55,59.55,0,0,1-22.78-4.14,38,38,0,0,1-23.56-30.49q-1.17-9.75-1.17-34.13v-27q0-23.81,1.12-33.7a37.75,37.75,0,0,1,23-30.68q10-4.39,23.41-4.39a59.35,59.35,0,0,1,22.77,4.15,38,38,0,0,1,23.56,30.48q1.17,9.75,1.17,34.14Zm-41.07-51.9q0-11-1.22-14.09t-5-3.07a5.63,5.63,0,0,0-4.93,2.48q-1.69,2.49-1.7,14.68v73.74q0,13.75,1.12,17c.75,2.14,2.49,3.22,5.22,3.22s4.58-1.24,5.36-3.71,1.17-8.36,1.17-17.66Z"
          transform="translate(-223.74 -340.48)" fill="#FFE424"/>
    <path d="M481.74,548.06V674.37h25V706h-66V548.06Z" transform="translate(-223.74 -340.48)" fill="#FFE424" />
    <path d="M555.72,548.06V674.37h25V706h-66V548.06Z" transform="translate(-223.74 -340.48)" fill="#FFE424"/>
    <path d="M588.65,548.06h68.47v31.6H629.71v30h25.65v30H629.71v34.72h30.14V706h-71.2Z"
          transform="translate(-223.74 -340.48)" fill="#FFE424"/>
    <path d="M765.54,616.82H724.47V589.38q0-12-1.31-14.94t-5.81-3q-5.07,0-6.43,3.61t-1.37,15.6V664q0,11.52,1.37,15c.91,2.34,3,3.52,6.14,3.52s5.05-1.18,6-3.52,1.41-7.86,1.41-16.53V642.67h41.07v6.15q0,24.52-3.47,34.78t-15.31,18q-11.85,7.73-29.21,7.72-18,0-29.75-6.53t-15.51-18.1q-3.81-11.55-3.8-34.77V603.75q0-17.07,1.16-25.6a36,36,0,0,1,7-16.44,38.9,38.9,0,0,1,16.09-12.43,58.06,58.06,0,0,1,23.66-4.54q18.14,0,29.94,7t15.51,17.49q3.7,10.47,3.71,32.58Z"
          transform="translate(-223.74 -340.48)" fill="#FFE424"/>
    <path d="M861,548.06v31.6H836.6V706H795.53V579.66H771.25v-31.6Z" transform="translate(-223.74 -340.48)" fill="#FFE424"/>
</svg>