<svg xmlns="http://www.w3.org/2000/svg" id="Calque_1" data-name="Calque 1" viewBox="0 0 407.44 404.49">
    <defs>
        <style>.cls-1{fill:#fbb03b;}</style>
    </defs>
    <path class="cls-1"
          d="M210.3,522.44c8.59-1.12,17.41-.54,26.1-.11,1.19.07,3.4,3.63,3.13,5.23-2.86,17-5.65,33.94-9.46,50.7-2.7,11.9-10.81,19.7-22.58,23.33-5.83,1.81-8.46,0-10.65-6.54-1.7-4.93.63-7,5-8.36,7.7-2.45,11.86-7.82,13.12-15.86,1.67-10.77,3.77-21.44,5.92-33.42-3.84,0-6.77.48-9.39-.13-2.18-.53-5.86-2.61-5.72-3.59C206.32,529.62,204.65,523.15,210.3,522.44Z"
          transform="translate(-196.28 -197.75)"/>
    <path class="cls-1"
          d="M241,573.39c-.68-2.52-.71-5.19-1.16-8.87,2.1-12.16,4.22-25.32,6.67-38.42.78-4,6.15-5.51,12.32-4.43,4.64.82,4.64,4,4.09,7.29-1.71,10.76-3.59,21.5-5.49,32.25-1.23,7.08,1,11.74,6.47,13.09,6.65,1.65,12.57-1.23,14.06-8,2.58-11.84,4.34-23.83,6.49-35.77,1.48-8.25,4.71-10.3,13-8.84,3.45.62,5.19,2.35,4.57,5.76-2.81,15.5-4.82,31.2-8.93,46.35-3.25,12-14.86,17.87-28.44,17C252.33,590.05,243.78,583.83,241,573.39Z"
          transform="translate(-196.28 -197.75)"/>
    <path class="cls-1"
          d="M323.16,541.12c-.16,1.8,4.61,4.52,7.56,6,3.91,2.06,8.39,3,12.32,5,6.63,3.41,10.31,8.89,10.12,16.64s-3.29,14.33-10.35,17.23c-6.74,2.77-14.26,3.64-21.44,5.35-.11-.32-.23-.62-.36-.94-5.42-.57-10.86-1.16-16.28-1.66-4-.35-5.48-2.68-4.66-6.2.87-3.77-.27-9.3,6.2-9.32,3.84,0,7.65.55,11.51.68,3.62.12,7.39.6,10.84-.18,2.6-.57,4.82-2.86,7.2-4.39-2.06-1.67-3.91-3.75-6.22-4.87-3.45-1.67-7.29-2.44-10.83-3.91-9.67-4-14.13-9.94-13.78-17.94.36-9,5.87-16.25,15-19.47,10-3.54,20.41-2.74,30.58-.73,1.6.32,3.54,4.18,3.47,6.35-.11,3.89-.73,8.6-6.33,8.73-5.05.12-10.15-.45-15.2-.25C329,537.48,323.66,535.86,323.16,541.12Z"
          transform="translate(-196.28 -197.75)"/>
    <path class="cls-1"
          d="M369,580.82c2.37-14.13,4.75-28.25,7.29-43.25-4.46,0-7.68.07-10.88,0s-6.77.53-7-4.48c-.32-6.21,2-10.78,6.4-11.35a65.7,65.7,0,0,1,9.1-.32c11.15,0,22.3-.07,33.46.09,2.88,0,6.37-.32,6.63,4.27.36,6.06-2.2,11-6.27,11.68a19.1,19.1,0,0,1-3,.11c-14.87,0-10.92-1.12-13.66,12.32-2.27,11.09-4,22.31-5.72,33.49-1.07,6.88-3,7.36-12.93,6.44C366.31,589.27,368.34,584.47,369,580.82Z"
          transform="translate(-196.28 -197.75)"/>
    <path class="cls-1"
          d="M457.18,547.74H475.1c3.17,0,6.28,0,6.69,4.3.57,5.92-1.83,10.47-6.19,10.83s-8.53.19-12.78.19c-10.17,0-10.17,0-10,11.29,7.43,0,14.88-.28,22.31.16,2.26.13,5.89,1.76,6.33,3.38,1.44,5.35-1.78,11.66-5.72,11.73-12.34.27-24.73.2-37.09,0-4.14-.09-5.39-3.15-4.8-6.93q2.64-16.75,5.39-33.55c1.06-6.37,2.36-12.73,3.2-19.15.8-6.1,4-8.89,10.13-8.8,10.12.12,20.27,0,30.42.05,3.13,0,7-.64,7.4,4.16C491,532,488,537.05,483,537.3c-5.88.32-11.77.11-17.65.14C457.36,537.46,457.06,537.8,457.18,547.74Z"
          transform="translate(-196.28 -197.75)"/>
    <path class="cls-1"
          d="M260.88,333.8c19.6-32.5,42.73-62.33,71.07-87.54,17.83-15.84,37.49-29.62,56.41-44.22,7.77-6,15.73-5.47,23.54.11L445,225.88c1.76,1.27,3.5,2.55,5.23,3.86.6-.25,1.17-.51,1.74-.76,0-3.79-.07-7.56,0-11.36.19-7.42,3.64-11,10.93-10.6,7.68.43,15.33,1.33,23,2.31,5.07.66,7.79,4.11,8.55,9,2.46,16,5.32,31.95,7,48,1.05,10.15,3.4,18.93,10,27.27,9.88,12.55,18.56,26.08,27.29,39.49,6.38,9.81,3,15.86-8.71,17.14-5.82.64-11.63,1.67-17.48,2.11-4.41.32-5.87,2.37-5.94,6.6-.3,18.06-.3,36.11-1.37,54.12-1.12,19.2-3.11,38.35-5.19,57.48-1.05,9.69-4.73,12.32-14.67,12-6.29-.21-12.55-.76-18.84-.83-4.64,0-6-2.05-5.48-6.47a1030.53,1030.53,0,0,0,5.57-125.08c-.22-15.79-1.28-31.59-2.51-47.33-.21-2.61-2.88-6.61-5-7.07-2.68-.55-7.27,1-8.8,3.2-5.9,8.44-11.66,17.14-16.14,26.38a184.34,184.34,0,0,0-18.24,94.94c.44,6.22,3.52,8.77,9.53,9.51,15.93,1.92,16.09,2.1,15.25,18.19-.51,9.28-1.69,18.53-2.45,27.84-.3,3.84-2.42,5.23-6,5.21-18.06-.19-36.09-.37-54.14-.44-3.71,0-4.92-1.71-5.15-5.16-.89-14.77-2.12-29.51-2.76-44.27-.09-2.33,1.69-5.44,3.59-7a31.22,31.22,0,0,0,12-24.82c.53-28.77,1.31-57.57,2-86.34,0-.62.27-1.33,0-1.81-1-2-2.1-3.88-3.18-5.8-1.5,1.78-4.13,3.42-4.38,5.37-.9,7.22-1.12,14.53-1.4,21.82-.5,12.78-.8,25.55-1.23,38.31-.21,5.94-3.38,9.6-8,9.51s-7.63-3.55-7.52-9.24c.44-19,1.08-38.1,1.72-57.14.11-3.42,1.37-8.09-3.18-8.45-5-.41-4.71,4.64-4.82,8.18-.69,17.83-1.24,35.68-1.83,53.5-.05,1.63-.11,3.25-.27,4.85-.53,4.82-2.84,8.09-8,8.27-4.53.16-7.84-3.45-7.84-9,0-9.74.23-19.47.61-29.19.39-9.91,1.38-19.83,1.47-29.75,0-2.36-2.49-4.73-3.82-7.11-1.33,2-3.59,3.89-3.79,6-1,10.68-1.86,21.42-2.06,32.14-.37,18.67-.18,37.32-.34,56-.12,10.59,4.27,18.93,12.66,25,3.38,2.45,4.48,5.1,4.66,9.1.66,14,1.51,27.93,2.74,41.85.44,4.86-1.41,6.14-5.69,6.24-10.74.2-21.48.68-32.22.84-7.48.12-11.2-2.88-11.77-10.19q-3.44-42.37-6.31-84.82c-.66-9.5-.6-19.06-.66-28.59,0-4.23-1.58-6.19-6-6.47-6-.39-12-1.57-18.08-2.15C258.8,349.2,255.46,342.76,260.88,333.8Z"
          transform="translate(-196.28 -197.75)"/>
    <path class="cls-1"
          d="M549.1,580.34a20.12,20.12,0,0,0-.46-3c-2.65-14.74-5.39-29.46-7.93-44.22-1.94-11.18-2.72-12-14.74-12-4.45.3-10.42-1-13.32,4.92q-14,28.65-27.47,57.59c-.62,1.37.25,4.64,1.44,5.42,5.3,3.42,14.94.64,16.77-5.35,2.47-8.18,7.34-10.9,15.29-9.49a12.21,12.21,0,0,0,2.42,0c8.89,0,8.89,0,10.61,8.41,1.42,7,4.66,8.71,13.21,7.2C551.18,588.77,549.28,584.2,549.1,580.34Zm-34-21.78c3.09-6.95,5.94-13.4,8.82-19.82l1.67.27c.85,6.31,1.69,12.62,2.63,19.55Z"
          transform="translate(-196.28 -197.75)"/>
    <path class="cls-1"
          d="M548.58,533.89c-.35-4.34-1.12-9.62,4.52-11.86a11.79,11.79,0,0,1,4.21-.57c13.14,0,26.3-.11,39.47,0,3,0,7.52-.64,6.88,4.39-.92,7.42-1.21,11.38-6.95,11.63-.8,0-1.6,0-2.42.07-14.24.2-10.81-2-13.53,12.32-2.11,11.1-3.87,22.28-5.92,33.39-1.21,6.56-4.41,8.16-12.76,6.63-6.05-1.1-4-5.63-3.45-9.12,2-12.35,4.34-24.66,6.45-37a43.24,43.24,0,0,0,0-6.24c-4,0-7.26.48-10.35-.13C552.46,537,548.69,535.27,548.58,533.89Z"
          transform="translate(-196.28 -197.75)"/>
</svg>