<svg id="Calque_1" data-name="Calque 1" xmlns="http://www.w3.org/2000/svg" viewBox="0 0 709.9 265.21"><defs><style>.cls-1{fill:#fff;}.cls-2{fill:#ffe400;}</style></defs><g id="Logo"><path class="cls-1" d="M45.05,410.76c1-3,2-5.95,3.05-8.92l1.14.2c.22.9.42,1.8.66,2.69,2.5,9.64,8.06,16.53,18,19,8.88,2.17,16.19-1.07,21-8.49A68.44,68.44,0,0,0,96.63,399c3.22-10,5.63-20.24,8.36-30.39a25.58,25.58,0,0,0,.35-3l-11.54,2a14.17,14.17,0,0,1,4.41-10.08c2.56-2.41,6-3.89,8.9-6,1.22-.87,2.71-2.05,3-3.36,4-15.36,7.88-30.76,11.76-46.16a27,27,0,0,0,.33-2.92c-2.74.26-5.19.38-7.6.74-11.31,1.68-21.29,6.06-28.58,15.17a25.4,25.4,0,0,0-5,23.17c.29,1.12.54,2.25.82,3.37l-.73.95c-2.47-1.11-5.25-1.81-7.38-3.38-13.19-9.76-14.78-29.83-3.69-41.94C82.35,283.74,98,278,115.6,276.57c16.9-1.39,33.62.81,50.39,2.42,14.47,1.39,28.93,3.12,43.5.94,9-1.35,17.25-4.16,23-11.88.16-.21.54-.27,1.32-.66.1,8-2,14.88-7.13,20.73C218.27,297.71,207,301.4,195,303c-14.35,1.93-28.62.44-42.85-1.54-1.08-.15-2.17-.31-3.25-.41-5-.5-5.11-.51-6.26,4.31q-4.67,19.49-9.22,39c-1,4.42-.92,4.52,3.47,4.49,7.77-.07,15.55-.11,23.31-.31,2.21-.06,2.65.77,2.36,2.74-1.17,7.64-7.86,13.05-17.1,13.49-4.37.21-8.76.2-13.14,0-2.68-.09-3.81.92-4.51,3.52-3.85,14.26-7.41,28.64-12,42.65-3.93,11.9-10.37,22.44-21.54,29.32-12.56,7.74-33.1,6.05-42.4-4.22-3-3.36-4.55-8.09-6.76-12.19Z" transform="translate(-45.05 -267.39)"/><path class="cls-2" d="M755,444.28c-6.68.05-13.36,0-20,.16-2.29.05-3-1.25-3.46-3.12-1.57-6-3.32-12-4.8-18.1-.58-2.35-1.72-3.21-4.11-3.16q-9,.18-18.08,0c-2.44-.06-3.5.92-4,3.24-1.35,5.87-3,11.67-4.33,17.54-.58,2.56-1.72,3.7-4.46,3.63-6-.15-12-.05-18.39-.05a28.2,28.2,0,0,1,.48-3.29c8.44-30.49,16.95-61,25.31-91.49.84-3.09,2.2-4.27,5.43-4.16,6.68.23,13.37.17,20,0,2.64-.06,3.89.85,4.61,3.46q11,40.25,22.17,80.43c1.13,4.11,2.43,8.17,3.66,12.25ZM713.36,365.1c-3,13.08-5.85,25.36-8.84,38.31,5.2,0,9.86-.1,14.52,0,2.77.08,3.7-.62,2.94-3.59-2.64-10.4-5-20.86-7.55-31.29C714.21,367.66,713.88,366.77,713.36,365.1Z" transform="translate(-45.05 -267.39)"/><path class="cls-1" d="M249.68,415.94c13.8-28.4,27-57,38.46-86.9a32.91,32.91,0,0,0-3.86-.38c-6.89.17-13.78.39-20.67.61-5,.16-5.81-.89-4.18-5.49,2.85-8,9.47-10.48,17.08-11,7.42-.48,14.87-.54,22.3-.8,4.05-.15,8.09-.43,12.13-.48,4.29-.06,4.89.63,3.33,4.55-4.53,11.27-9.07,22.54-13.91,33.69q-14.07,32.37-28.51,64.6c-3.36,7.48-7.13,14.78-11,22-2.45,4.65-6.37,7.45-11.86,7.55-3.27.06-6.54.19-9.81.08-4.74-.16-7.64-2.94-8.39-7.37a160.1,160.1,0,0,1-2.34-19.5c-.55-12.13-.28-24.3-.92-36.43-.49-9.46-.77-19.08-5.75-27.7-.29-.5.73-2.52,1.44-2.71a33.45,33.45,0,0,1,17.51-.19c3.64,1,5.61,3.87,6.33,7.34a72.23,72.23,0,0,1,1.74,12.65c.41,14.66.53,29.33.75,44C249.6,414.71,249.65,415.33,249.68,415.94Z" transform="translate(-45.05 -267.39)"/><path class="cls-1" d="M319.73,405c1.36,3.75,2.07,7.09,3.69,9.91,5.41,9.39,14.14,12.65,24.49,12,13.82-.87,24.55-7.17,32-18.92.55-.86,1.75-1.3,2.64-1.94a11.41,11.41,0,0,1,.76,3.3c-.95,12.78-7.53,22-18.62,27.89-11.76,6.28-24.21,7.93-37.18,4.29-15.34-4.31-26-16.67-27.42-32.54-1.44-16.26,1.54-31.68,12.57-44.26,11.9-13.57,27-21,45.44-18.34,13.12,1.88,20.21,11.4,18.86,23.7a33.59,33.59,0,0,1-7.29,17.34c-8.91,11.25-20.85,16.66-35,17.52C330.11,405.22,325.43,405,319.73,405Zm3.13-16.69c3.71,0,7.09.31,10.39-.06,9.89-1.11,18.44-4.66,23.23-14.16,1.31-2.59,2.22-5.37.19-8s-4.84-2.7-7.74-2.35C336.39,365.2,326.74,374.79,322.86,388.29Z" transform="translate(-45.05 -267.39)"/><path class="cls-2" d="M562.38,364.18h-4.71c-9.74,0-19.49-.09-29.23.05-3.06,0-4.43-.85-4.26-4.08.19-3.82.09-7.66,0-11.49,0-2.21.94-3.13,3.17-3.12q29.73.06,59.45,0c2.15,0,3.16.75,3.25,3,.23,6.29-.45,12-4.14,17.69-11.53,17.83-22.38,36.09-33.49,54.18-.91,1.48-1.78,3-3,5,1.64.13,2.75.29,3.87.29,11.06,0,22.12.1,33.17,0,3.11,0,4.37,1,4.21,4.15-.2,3.72-.1,7.45,0,11.17,0,2.29-.77,3.39-3.24,3.39q-31.7-.07-63.39,0c-2.4,0-3.14-1-3.3-3.32a25.22,25.22,0,0,1,4.18-16c12-18.81,23.56-37.93,35.27-56.95C560.81,367.13,561.33,366.07,562.38,364.18Z" transform="translate(-45.05 -267.39)"/><path class="cls-2" d="M407.77,395.65c0-14.89.07-29.79,0-44.68,0-3.14,1-4.43,4.19-4.83,11.68-1.45,23.37-2.08,35-.49,12.49,1.7,22.46,7.47,26,20.35,3.5,12.63,1.49,24.47-8.49,33.82-6.23,5.83-14.16,8.15-22.48,9a52.91,52.91,0,0,1-8.81.14c-2.55-.17-3.58.6-3.55,3.24.09,9.31.05,18.62,0,27.93,0,4.06-.22,4.25-4.28,4.27-4.49,0-9-.14-13.47.05-3.13.14-4.22-1-4.19-4.14C407.84,425.44,407.77,410.55,407.77,395.65Zm21.9-18.82v6.23c0,9.42.31,9.68,9.77,8.46,8.57-1.11,13.58-7.55,13-16.73-.47-7.8-5.77-12.46-14.34-12.62-1.53,0-3.07.09-4.59,0-2.77-.16-4,.95-3.88,3.83C429.79,369.6,429.68,373.22,429.67,376.83Z" transform="translate(-45.05 -267.39)"/><path class="cls-2" d="M625.17,425.8H631c10.41,0,20.82.09,31.22-.06,3.16,0,4.33,1.07,4.15,4.2a99.77,99.77,0,0,0,0,10.52c.15,3-.94,4-4,4-16-.1-32-.05-48-.05-4.82,0-9.64-.08-14.46,0-2.51.06-3.4-.9-3.56-3.44a24.43,24.43,0,0,1,4.05-15.43c12.29-19.31,24.15-38.9,36.16-58.38.45-.74.79-1.53,1.44-2.79-1.46-.09-2.58-.22-3.71-.22-10,0-19.94-.1-29.91,0-3.18,0-4.29-1.1-4.12-4.21a97,97,0,0,0,0-10.51c-.16-3,1-4,4-4,17.31.1,34.62.05,51.92.05,9.51,0,9.67,0,9.4,9.56a16.93,16.93,0,0,1-2.19,8c-12,20-24.32,39.82-36.51,59.71C626.46,423.51,626,424.28,625.17,425.8Z" transform="translate(-45.05 -267.39)"/><path class="cls-1" d="M189.14,350.26c1.1,0,2.2-.08,3.28,0,6.15.55,9.18,3.2,8.4,9.33a242.4,242.4,0,0,1-5.16,25.64c-2.5,10.54-5.4,21-8.11,31.47a3.47,3.47,0,0,0-.26,1.61c.64,2.32.74,5.46,2.3,6.64,1.34,1,4.41-.11,6.67-.51a27.31,27.31,0,0,0,4.12-1.38c-.1,1.67.22,3.51-.38,5a24.4,24.4,0,0,1-18.67,15.45c-11.45,2.27-20.61-6.79-18.3-18.79,2.65-13.72,6.43-27.23,9.8-40.81,1.82-7.32,4-14.56,5.62-21.92a14.68,14.68,0,0,0-.49-7c-.78-2.59.16-3.5,2.38-3.83,2.91-.43,5.85-.76,8.77-1.14Z" transform="translate(-45.05 -267.39)"/><path class="cls-2" d="M509.19,395.31q0,22.35,0,44.7c0,4.25-.17,4.4-4.48,4.41s-8.54,0-12.81,0c-4.55,0-4.62-.08-4.63-4.57V361.64c0-4.27.08-8.55,0-12.82-.05-2.41.95-3.33,3.32-3.29,4.71.09,9.42,0,14.13,0,4.32,0,4.48.16,4.49,4.4Q509.21,372.64,509.19,395.31Z" transform="translate(-45.05 -267.39)"/><path class="cls-1" d="M459.68,510.73V497.42c0-6.69,0-13.37,0-20.05,0-3.75,1.94-6.07,4.94-6.12s5,2.09,5,5.76c.1,16.65.08,33.3,0,49.94,0,2.62-1.18,4.79-3.94,5.38-3.13.67-5.47-.53-7.06-3.44C452.84,518.22,446.93,507.6,441,497c-.68-1.22-1.44-2.39-2.6-4.3-.1,1.82-.2,2.84-.2,3.87,0,9.64,0,19.28,0,28.91a15.42,15.42,0,0,1-.2,3.27c-.57,2.66-2.42,3.8-5,3.74a4.37,4.37,0,0,1-4.62-3.83,18.72,18.72,0,0,1-.18-3.27q0-23.33,0-46.65c0-.22,0-.44,0-.66-.08-3.09.62-5.81,4-6.64s5.41,1,6.92,3.73q7.05,12.81,14.13,25.59c1.89,3.4,3.83,6.78,5.74,10.17Z" transform="translate(-45.05 -267.39)"/><path class="cls-1" d="M321.82,506.18l8.13,13c1.1,1.77,2.25,3.51,3.29,5.31,1.74,3,1.26,5.5-1.29,7.14s-5.32.94-7.07-1.81c-4.29-6.75-8.38-13.62-12.68-20.35a5.8,5.8,0,0,0-3.11-2.51c-4.64-1-5.57-.12-5.58,4.67,0,5,0,10.07,0,15.11-.05,3.73-1.79,5.66-4.9,5.69-2.95,0-5-2.1-5-5.69-.07-16.09-.09-32.19,0-48.29,0-4.48,2.37-6.63,6.85-6.6a177.36,177.36,0,0,1,18,.57c8.54.91,13.73,6.1,15.05,14.1,1.36,8.24-2,14.71-9.69,18.54C323.32,505.33,322.86,505.61,321.82,506.18Zm-10.94-8.62a58.48,58.48,0,0,0,6.22-.32c4.07-.61,6.31-3.15,6.52-7,.25-4.4-1.65-7.21-5.86-8.23a25.5,25.5,0,0,0-6.16-.72c-9.38.06-8-1.28-8.09,7.87,0,.33,0,.66,0,1C303.6,498.35,302.51,497.41,310.88,497.56Z" transform="translate(-45.05 -267.39)"/><path class="cls-1" d="M285.46,502c-.51,5.21-.52,10.53-1.62,15.61-2.16,10.06-9.48,15-20.94,14.88-9.84-.09-17.76-5.63-18.83-15.32a134,134,0,0,1,0-30.68c1.54-12.56,12.81-16.42,23.08-15.1,11.48,1.46,17.41,8.66,17.87,21,.12,3.17,0,6.35,0,9.53Zm-10.19-.11c-.31-4.45-.3-9.07-1-13.57-.84-5.16-4.61-7.77-10.17-7.8-5.78,0-10,2.56-10.38,7.85a204.08,204.08,0,0,0,0,26.75c.35,5.33,4.61,8,10.27,8s9.43-2.69,10.31-8C275,510.8,275,506.4,275.27,501.91Z" transform="translate(-45.05 -267.39)"/><path class="cls-1" d="M370.3,501.6c.3,4.65.32,9,.93,13.36,1.08,7.64,10.35,11.57,16.68,7.16a3.9,3.9,0,0,0,1.42-2.69c.17-3.5,0-7,.09-10.51,0-2-.94-2.74-2.84-2.68a19.65,19.65,0,0,1-3.6-.13,4.1,4.1,0,0,1-3.77-4.28c0-2.31,1.31-4.15,3.72-4.29a93.08,93.08,0,0,1,11.81,0,4.76,4.76,0,0,1,4.63,5.07c.1,6.46.14,12.93,0,19.39-.1,3.93-2.66,6.48-6,8a27.68,27.68,0,0,1-20.51,1.15c-6.92-2.27-10.9-7.57-11.37-14.36a176.92,176.92,0,0,1,0-30.1c1.1-10.89,11.15-17.15,22.87-15.31a35,35,0,0,1,9.85,3.32c3.26,1.62,4.11,4.74,2.63,7.11s-4,2.61-7.25.78c-3.52-2-7.1-3.27-11.27-2.15s-6.57,3.54-7.05,7.67C370.77,492.68,370.6,497.27,370.3,501.6Z" transform="translate(-45.05 -267.39)"/><path class="cls-1" d="M498.7,471.21c3,.13,4.84,1.93,5.8,4.57,1.36,3.7,2.48,7.48,3.72,11.22L520,522.56c.41,1.25.79,2.5,1.12,3.77.73,2.76-.23,4.88-2.87,5.81s-5.06.32-6.31-2.51a55.41,55.41,0,0,1-2.68-7c-.68-2.38-1.88-3.41-4.44-3.31-4.26.18-8.54.11-12.81,0a3.22,3.22,0,0,0-3.6,2.6c-.66,2.32-1.33,4.64-2.18,6.89-1.14,3-3.8,4.31-6.53,3.44s-3.95-3.5-2.91-6.68q8.1-24.84,16.31-49.63C494,473.2,495.6,471.33,498.7,471.21Zm6.64,39.1-6.61-22.52-6.48,22.52Z" transform="translate(-45.05 -267.39)"/><path class="cls-1" d="M528.09,501.45c0-8.09-.06-16.18,0-24.28,0-4.53,3.54-7.11,7-5.41,2.4,1.17,3,3.31,3,5.75q0,12.8,0,25.6c0,5.36.07,10.72,0,16.07,0,2.37.86,3.38,3.27,3.33,4.48-.09,9-.06,13.45,0a12.1,12.1,0,0,1,3.86.54c2.17.78,3.73,2.59,3,4.79-.55,1.54-2.42,3.64-3.77,3.69-8.4.34-16.83.32-25.24.07-3-.09-4.49-2.47-4.51-6.19C528.05,517.42,528.09,509.44,528.09,501.45Z" transform="translate(-45.05 -267.39)"/><path class="cls-1" d="M352.17,502.1c0,8.21,0,16.42,0,24.62,0,3.81-1.39,5.55-4.36,5.76-3.22.22-5.28-1.67-5.53-5.51-.22-3.26-.11-6.56-.11-9.84q0-18.7,0-37.42a22.23,22.23,0,0,1,.29-4.24c.56-2.85,2.76-4.58,5.35-4.2a4.6,4.6,0,0,1,4.33,4.9c.05,5,0,10.07,0,15.1Z" transform="translate(-45.05 -267.39)"/><path class="cls-1" d="M192.23,340.58c-8.59,0-13-6-10.53-14.24,2.34-7.81,8.17-12.58,15.06-12.31s11,4.63,10.77,11.44C207.3,334.28,200.93,340.57,192.23,340.58Z" transform="translate(-45.05 -267.39)"/><path class="cls-1" d="M417.26,502.11c0,8.21,0,16.43,0,24.64,0,3.92-1.55,5.71-4.71,5.74s-4.8-1.78-4.81-5.65q0-24.81,0-49.61c0-4,1.74-6.08,4.88-6s4.62,2,4.64,5.92C417.29,485.46,417.26,493.79,417.26,502.11Z" transform="translate(-45.05 -267.39)"/></g></svg>